<svg version="1.2" xmlns="http://www.w3.org/2000/svg" viewBox="0 0 263 48" width="263" height="48">
	<title>logo-svg</title>
	<defs>
		<clipPath clipPathUnits="userSpaceOnUse" id="cp1">
			<path d="m0 0h48v48h-48z"/>
		</clipPath>
		<linearGradient id="g1" x2="1" gradientUnits="userSpaceOnUse" gradientTransform="matrix(21.229,37.151,-26.211,14.978,23.552,-0.84)">
			<stop offset="0" stop-color="#af6ca1"/>
			<stop offset=".49" stop-color="#65246b"/>
			<stop offset="1" stop-color="#2a0331"/>
		</linearGradient>
		<linearGradient id="g2" x2="1" gradientUnits="userSpaceOnUse" gradientTransform="matrix(21.229,37.151,-42.537,24.307,17.671,2.521)">
			<stop offset="0" stop-color="#af6ca1"/>
			<stop offset=".49" stop-color="#65246b"/>
			<stop offset="1" stop-color="#2a0331"/>
		</linearGradient>
		<linearGradient id="g3" x2="1" gradientUnits="userSpaceOnUse" gradientTransform="matrix(21.229,37.151,-26.211,14.978,2.818,11.008)">
			<stop offset="0" stop-color="#af6ca1"/>
			<stop offset=".49" stop-color="#65246b"/>
			<stop offset="1" stop-color="#2a0331"/>
		</linearGradient>
		<linearGradient id="g4" x2="1" gradientUnits="userSpaceOnUse" gradientTransform="matrix(21.229,37.15,-44.925,25.672,.688,12.225)">
			<stop offset="0" stop-color="#af6ca1"/>
			<stop offset=".49" stop-color="#65246b"/>
			<stop offset="1" stop-color="#2a0331"/>
		</linearGradient>
		<linearGradient id="g5" x2="1" gradientUnits="userSpaceOnUse" gradientTransform="matrix(21.229,37.151,-42.54,24.309,8.699,7.648)">
			<stop offset="0" stop-color="#af6ca1"/>
			<stop offset=".49" stop-color="#65246b"/>
			<stop offset="1" stop-color="#2a0331"/>
		</linearGradient>
		<linearGradient id="g6" x2="1" gradientUnits="userSpaceOnUse" gradientTransform="matrix(21.229,37.151,-44.884,25.648,25.681,-2.057)">
			<stop offset="0" stop-color="#af6ca1"/>
			<stop offset=".49" stop-color="#65246b"/>
			<stop offset="1" stop-color="#2a0331"/>
		</linearGradient>
		<clipPath clipPathUnits="userSpaceOnUse" id="cp2">
			<path d="m81.52 20.06h-4.12q-0.17-1.01-0.65-1.79-0.47-0.8-1.17-1.35-0.71-0.55-1.61-0.82-0.89-0.29-1.93-0.29-1.84 0-3.26 0.93-1.42 0.91-2.22 2.68-0.8 1.76-0.8 4.31 0 2.58 0.8 4.36 0.82 1.76 2.22 2.66 1.42 0.89 3.25 0.89 1.02 0 1.9-0.26 0.89-0.28 1.59-0.81 0.72-0.52 1.2-1.29 0.5-0.78 0.68-1.77l4.12 0.03q-0.23 1.6-1 3.01-0.76 1.41-1.99 2.49-1.24 1.07-2.89 1.67-1.65 0.6-3.66 0.6-2.98 0-5.31-1.38-2.33-1.37-3.68-3.97-1.34-2.6-1.34-6.23 0-3.65 1.36-6.23 1.35-2.6 3.68-3.98 2.34-1.37 5.29-1.37 1.88 0 3.5 0.52 1.62 0.53 2.88 1.56 1.27 1.01 2.08 2.48 0.83 1.47 1.08 3.35zm26.37 3.67q0 3.64-1.37 6.24-1.35 2.59-3.7 3.96-2.33 1.38-5.29 1.38-2.96 0-5.31-1.38-2.33-1.38-3.7-3.97-1.35-2.6-1.35-6.23 0-3.65 1.35-6.23 1.37-2.6 3.7-3.98 2.35-1.37 5.31-1.37 2.96 0 5.29 1.37 2.35 1.38 3.7 3.98 1.37 2.58 1.37 6.23zm-4.11 0q0-2.57-0.8-4.33-0.8-1.77-2.2-2.67-1.41-0.92-3.25-0.92-1.84 0-3.25 0.92-1.41 0.9-2.21 2.67-0.79 1.76-0.79 4.33 0 2.56 0.79 4.33 0.8 1.77 2.21 2.68 1.41 0.9 3.25 0.9 1.84 0 3.25-0.9 1.4-0.91 2.2-2.68 0.8-1.77 0.8-4.33zm10.45-11.28h5l6.69 16.34h0.26l6.7-16.34h5v22.55h-3.92v-15.49h-0.21l-6.23 15.42h-2.93l-6.23-15.45h-0.21v15.52h-3.92zm30.57 0h5l6.69 16.34h0.27l6.69-16.34h5v22.55h-3.92v-15.49h-0.21l-6.23 15.42h-2.93l-6.23-15.46h-0.21v15.53h-3.92zm42.83 6.19q-0.16-1.44-1.3-2.24-1.13-0.81-2.95-0.81-1.28 0-2.19 0.39-0.92 0.38-1.4 1.05-0.48 0.66-0.5 1.5 0.01 0.71 0.32 1.23 0.34 0.51 0.9 0.88 0.56 0.35 1.24 0.59 0.68 0.24 1.38 0.41l2.11 0.53q1.28 0.29 2.45 0.8 1.19 0.51 2.13 1.28 0.95 0.77 1.5 1.86 0.55 1.09 0.55 2.55 0 1.98-1.02 3.49-1.01 1.5-2.92 2.35-1.91 0.83-4.62 0.83-2.63 0-4.57-0.81-1.92-0.82-3.01-2.38-1.08-1.56-1.17-3.81h4.02q0.09 1.18 0.73 1.96 0.63 0.78 1.66 1.17 1.03 0.38 2.31 0.38 1.33 0 2.33-0.39 1.02-0.41 1.59-1.13 0.57-0.72 0.58-1.69-0.01-0.88-0.51-1.46-0.51-0.58-1.42-0.96-0.91-0.4-2.12-0.71l-2.56-0.66q-2.79-0.71-4.41-2.17-1.6-1.46-1.6-3.88 0-2 1.08-3.49 1.08-1.5 2.96-2.33 1.87-0.83 4.23-0.83 2.4 0 4.21 0.83 1.82 0.83 2.85 2.3 1.04 1.47 1.07 3.37zm24.57-6.19h4.08v14.72q0 2.43-1.14 4.27-1.13 1.83-3.19 2.87-2.06 1.02-4.81 1.02-2.77 0-4.83-1.02-2.05-1.04-3.19-2.87-1.13-1.84-1.13-4.27v-14.72h4.08v14.38q0 1.41 0.62 2.51 0.63 1.1 1.76 1.73 1.13 0.62 2.69 0.62 1.55 0 2.68-0.62 1.15-0.63 1.76-1.73 0.62-1.1 0.62-2.51zm11 22.55v-22.55h8.46q2.6 0 4.36 0.91 1.77 0.9 2.67 2.53 0.92 1.62 0.92 3.77 0 2.17-0.93 3.77-0.91 1.58-2.7 2.45-0.2 0.1-0.43 0.19l4.88 8.93h-4.56l-4.43-8.26h-4.15v8.26zm4.08-8.26v-3.39h-1.7v3.39zm3.76-3.39q1.52 0 2.49-0.42 0.97-0.43 1.43-1.24 0.47-0.83 0.47-2.03 0-1.2-0.47-2.04-0.47-0.86-1.44-1.3-0.97-0.45-2.5-0.45h-3.74v7.48zm14.79 11.65v-22.55h14.66v3.43h-10.58v6.12h9.82v3.42h-9.82v6.16h10.67v3.42z"/>
		</clipPath>
	</defs>
	<style>
		.s0 { fill: url(#g1) } 
		.s1 { fill: url(#g2) } 
		.s2 { fill: url(#g3) } 
		.s3 { fill: url(#g4) } 
		.s4 { fill: url(#g5) } 
		.s5 { fill: url(#g6) } 
		.s6 { fill: #000000 } 
	</style>
	<g id="Clip-Path" clip-path="url(#cp1)">
		<g id="Layer">
			<path id="Layer" class="s0" d="m33.5 20.4c-1.8 0-3.3 1.6-3.4 3.4-0.1 2.1 1.6 3.8 3.6 3.8q0.5 0 1-0.1c0.6-0.2 1.3 0.1 1.7 0.6l1.9 2.5c0.4 0.5 0.4 1.3 0.1 1.9-0.5 0.7-0.7 1.5-0.6 2.5 0.3 1.6 1.6 2.9 3.3 3.1 2.4 0.1 4.3-1.9 3.9-4.3-0.2-1.4-1.4-2.6-2.8-2.9-0.6-0.1-1.2-0.1-1.7 0-0.7 0.2-1.4-0.1-1.8-0.7l-1.8-2.4c-0.4-0.6-0.4-1.3-0.1-1.9q0.3-0.4 0.4-0.8c0.1-0.5 0.6-0.9 1.1-0.8l2.2-0.1c0.3 0 0.6 0.2 0.7 0.5 0.3 0.9 1.1 1.5 2 1.5 1.2 0.1 2.4-0.9 2.4-2.2 0-1.3-1-2.3-2.3-2.3-1 0-1.9 0.7-2.1 1.5-0.1 0.3-0.4 0.5-0.7 0.5h-2.2c-0.5 0-1-0.3-1.1-0.8-0.4-1.5-1.8-2.5-3.5-2.6 0 0-0.1 0.1-0.2 0.1z"/>
			<path id="Layer" class="s1" d="m22 0.8c-1.2 0.9-1.6 2.5-1.2 3.9 0.2 0.6 0.5 1.1 0.9 1.5 0.6 0.5 0.7 1.3 0.3 1.9l-1.2 2.8c-0.2 0.7-0.9 1-1.6 1q-0.4 0-0.9 0.1c-0.5 0.1-1-0.1-1.2-0.5l-1.1-1.9c-0.2-0.3-0.1-0.6 0-0.9 0.6-0.7 0.8-1.6 0.3-2.5-0.5-1.1-2-1.5-3.1-0.9-1.1 0.6-1.5 2-0.8 3.1 0.5 0.9 1.5 1.3 2.4 1.1 0.2-0.1 0.6 0.1 0.7 0.3l1.1 1.9c0.2 0.5 0.2 1-0.2 1.4-1.1 1.2-1.3 2.9-0.3 4.4 1 1.6 3 2.1 4.7 1.2 1.8-0.9 2.5-3.2 1.5-5q-0.3-0.4-0.6-0.7c-0.5-0.5-0.6-1.2-0.4-1.9l1.2-2.8c0.3-0.6 1-1.1 1.7-1 0.8 0 1.6-0.3 2.3-0.8 1.4-1 1.8-2.9 1.1-4.4-0.6-1.4-1.9-2.1-3.3-2.1-0.8 0-1.6 0.3-2.3 0.8z"/>
			<path id="Layer" class="s2" d="m2.9 14.1c0.3 1.5 1.4 2.7 2.9 3 0.6 0.1 1.1 0.1 1.6-0.1 0.7-0.2 1.5 0.2 1.9 0.7l1.8 2.5c0.4 0.5 0.4 1.3 0 1.9-0.1 0.2-0.3 0.5-0.3 0.8-0.2 0.5-0.6 0.8-1.1 0.8h-2.2c-0.3 0-0.6-0.2-0.7-0.4-0.3-0.9-1.1-1.5-2-1.6-1.3-0.1-2.4 1-2.4 2.3 0 1.2 1 2.3 2.3 2.3 1-0.1 1.8-0.7 2.1-1.6 0.1-0.3 0.4-0.5 0.7-0.4l2.2-0.1c0.5 0 0.9 0.4 1 0.9 0.5 1.5 2 2.6 3.7 2.5 1.9-0.1 3.4-1.6 3.5-3.5 0-2.1-1.6-3.7-3.7-3.7q-0.5-0.1-0.9 0.1c-0.7 0.1-1.4-0.1-1.8-0.6l-1.8-2.5c-0.4-0.6-0.5-1.3-0.1-1.9 0.4-0.7 0.6-1.6 0.5-2.5-0.2-1.6-1.6-2.9-3.2-3.1-0.1 0-0.3 0-0.4 0-2.2 0-3.9 1.9-3.6 4.2z"/>
			<path id="Layer" class="s3" d="m15.9 30.6q-0.2 0.4-0.3 0.9c-0.2 0.6-0.7 1.1-1.4 1.2l-3.1 0.4c-0.7 0-1.4-0.3-1.7-1-0.4-0.6-1-1.3-1.8-1.6-1.6-0.6-3.4-0.1-4.4 1.3-1.3 1.9-0.5 4.6 1.7 5.5 1.4 0.5 3 0.1 4-1 0.4-0.5 0.7-1 0.8-1.5 0.2-0.7 0.8-1.1 1.5-1.2l3.1-0.3c0.6-0.1 1.3 0.2 1.6 0.9q0.2 0.4 0.5 0.7c0.4 0.4 0.4 0.9 0.2 1.3l-1.1 1.9c-0.1 0.3-0.5 0.4-0.7 0.4-0.9-0.2-1.9 0.2-2.4 1-0.7 1.1-0.3 2.5 0.8 3.1 1 0.7 2.5 0.4 3.1-0.8 0.5-0.8 0.3-1.9-0.3-2.6-0.1-0.2-0.2-0.5 0-0.8l1.1-1.9c0.2-0.5 0.7-0.6 1.2-0.5 1.6 0.4 3.3-0.4 4.1-1.9 0.8-1.7 0.2-3.7-1.3-4.7q-1-0.6-2-0.6c-1.2 0-2.5 0.6-3.2 1.8z"/>
			<path id="Layer" class="s4" d="m27.2 29.2c-1.9 1-2.5 3.3-1.5 5q0.2 0.4 0.6 0.8c0.5 0.5 0.6 1.2 0.3 1.8l-1.2 2.8c-0.3 0.7-0.9 1.1-1.6 1.1-0.8 0-1.7 0.2-2.4 0.8-1.3 1-1.7 2.9-1 4.3 0.9 2.2 3.7 2.9 5.6 1.3 1.1-0.9 1.6-2.5 1.1-3.9-0.2-0.6-0.5-1-0.9-1.4-0.5-0.5-0.6-1.3-0.3-1.9l1.2-2.9c0.3-0.6 1-0.9 1.7-0.9q0.4 0 0.9-0.1c0.4-0.1 0.9 0.1 1.2 0.5l1.1 1.9c0.2 0.2 0.1 0.6-0.1 0.8-0.6 0.7-0.7 1.7-0.3 2.6 0.6 1.1 2 1.5 3.1 0.9 1.1-0.6 1.5-2 0.9-3.1-0.5-0.9-1.5-1.3-2.4-1.1-0.3 0.1-0.6-0.1-0.7-0.4l-1.1-1.9c-0.3-0.4-0.2-1 0.2-1.3 1-1.2 1.2-3 0.3-4.4-0.7-1.1-1.9-1.7-3-1.7q-0.9 0-1.7 0.4z"/>
			<path id="Layer" class="s5" d="m31.7 6.1c-0.5 0.9-0.4 1.9 0.2 2.7q0.3 0.3 0.1 0.8l-1.1 1.9c-0.3 0.4-0.7 0.6-1.3 0.5-1.5-0.4-3.2 0.4-4 1.9-0.8 1.6-0.2 3.7 1.3 4.7 1.8 1.1 4.1 0.5 5.1-1.3q0.2-0.4 0.4-0.8c0.1-0.6 0.7-1.2 1.4-1.3l3-0.3c0.7-0.1 1.4 0.3 1.8 0.9 0.3 0.7 1 1.3 1.8 1.7 1.5 0.6 3.4 0.1 4.3-1.3 1.4-1.9 0.6-4.7-1.7-5.5-1.3-0.5-3-0.2-3.9 1-0.4 0.4-0.7 0.9-0.8 1.4-0.2 0.7-0.8 1.2-1.6 1.3l-3 0.3c-0.7 0.1-1.3-0.3-1.6-0.9q-0.3-0.4-0.6-0.7c-0.3-0.4-0.4-0.9-0.1-1.4l1.1-1.9c0.1-0.2 0.4-0.4 0.7-0.3 0.9 0.2 1.9-0.2 2.4-1 0.7-1.1 0.3-2.5-0.8-3.2q-0.6-0.3-1.2-0.3c-0.8 0-1.5 0.4-1.9 1.1z"/>
		</g>
	</g>
	<g clip-path="url(#cp2)">
		<path id="Layer" fill-rule="evenodd" class="s6" d="m81.5 20.1h-4.1q-0.2-1.1-0.6-1.8-0.5-0.8-1.2-1.4-0.7-0.5-1.6-0.8-0.9-0.3-2-0.3-1.8 0-3.2 0.9-1.4 1-2.2 2.7-0.8 1.8-0.8 4.3 0 2.6 0.8 4.4 0.8 1.7 2.2 2.7 1.4 0.8 3.2 0.8 1 0 1.9-0.2 0.9-0.3 1.6-0.8 0.7-0.6 1.2-1.3 0.5-0.8 0.7-1.8h4.1q-0.2 1.6-1 3.1-0.7 1.4-2 2.4-1.2 1.1-2.9 1.7-1.6 0.6-3.6 0.6-3 0-5.3-1.4-2.4-1.3-3.7-3.9-1.3-2.6-1.3-6.3 0-3.6 1.3-6.2 1.4-2.6 3.7-4 2.3-1.4 5.3-1.4 1.9 0 3.5 0.6 1.6 0.5 2.9 1.5 1.2 1 2 2.5 0.9 1.5 1.1 3.4zm26.4 3.6q0 3.7-1.4 6.3-1.3 2.6-3.7 3.9-2.3 1.4-5.3 1.4-2.9 0-5.3-1.4-2.3-1.4-3.7-3.9-1.3-2.6-1.3-6.3 0-3.6 1.3-6.2 1.4-2.6 3.7-4 2.4-1.4 5.3-1.4 3 0 5.3 1.4 2.4 1.4 3.7 4 1.4 2.6 1.4 6.2zm-4.1 0q0-2.5-0.8-4.3-0.8-1.8-2.2-2.7-1.4-0.9-3.3-0.9-1.8 0-3.2 0.9-1.4 0.9-2.2 2.7-0.8 1.8-0.8 4.3 0 2.6 0.8 4.4 0.8 1.7 2.2 2.6 1.4 0.9 3.2 0.9 1.9 0 3.3-0.9 1.4-0.9 2.2-2.6 0.8-1.8 0.8-4.4zm10.4-11.2h5l6.7 16.3h0.3l6.7-16.3h5v22.5h-3.9v-15.5h-0.3l-6.2 15.4h-2.9l-6.2-15.4h-0.3v15.5h-3.9zm30.6 0h5l6.7 16.3h0.3l6.7-16.3h4.9v22.5h-3.9v-15.4h-0.2l-6.2 15.4h-2.9l-6.3-15.5h-0.2v15.5h-3.9zm42.8 6.2q-0.1-1.4-1.3-2.2-1.1-0.8-2.9-0.8-1.3 0-2.2 0.4-0.9 0.4-1.4 1-0.5 0.7-0.5 1.5 0 0.7 0.3 1.3 0.3 0.5 0.9 0.8 0.6 0.4 1.2 0.6 0.7 0.3 1.4 0.4l2.1 0.6q1.3 0.3 2.5 0.8 1.2 0.5 2.1 1.2 1 0.8 1.5 1.9 0.6 1.1 0.6 2.6 0 1.9-1 3.5-1.1 1.4-3 2.3-1.9 0.8-4.6 0.8-2.6 0-4.6-0.8-1.9-0.8-3-2.4-1.1-1.5-1.1-3.8h4q0.1 1.2 0.7 2 0.6 0.8 1.7 1.2 1 0.3 2.3 0.3 1.3 0 2.3-0.4 1-0.4 1.6-1.1 0.6-0.7 0.6-1.7 0-0.9-0.5-1.4-0.5-0.6-1.5-1-0.9-0.4-2.1-0.7l-2.5-0.7q-2.8-0.7-4.4-2.1-1.6-1.5-1.6-3.9 0-2 1-3.5 1.1-1.5 3-2.3 1.9-0.9 4.2-0.9 2.4 0 4.2 0.9 1.9 0.8 2.9 2.3 1 1.4 1.1 3.3zm24.5-6.2h4.1v14.8q0 2.4-1.1 4.2-1.2 1.9-3.2 2.9-2.1 1-4.8 1-2.8 0-4.9-1-2-1-3.1-2.9-1.2-1.8-1.2-4.2v-14.8h4.1v14.4q0 1.4 0.6 2.5 0.6 1.1 1.8 1.8 1.1 0.6 2.7 0.6 1.5 0 2.7-0.6 1.1-0.7 1.7-1.8 0.6-1.1 0.6-2.5zm11 22.6v-22.6h8.5q2.6 0 4.3 0.9 1.8 0.9 2.7 2.6 0.9 1.6 0.9 3.7 0 2.2-0.9 3.8-0.9 1.6-2.7 2.5-0.2 0.1-0.4 0.2l4.9 8.9h-4.6l-4.4-8.3h-4.2v8.3zm4.1-8.3v-3.4h-1.7v3.4zm3.8-3.4q1.5 0 2.4-0.4 1-0.4 1.5-1.2 0.5-0.9 0.5-2.1 0-1.2-0.5-2-0.5-0.9-1.5-1.3-0.9-0.5-2.5-0.5h-3.7v7.5zm14.8 11.7v-22.6h14.7v3.5h-10.6v6.1h9.8v3.4h-9.8v6.2h10.6v3.4z"/>
		<rect width="263" height="48" id="Color Fill 1" style="fill: #ffffff"/>
	</g>
</svg>